<svg version="1" width="400" height="400" xmlns="http://www.w3.org/2000/svg"><g fill-rule="evenodd"><path d="M62 124l-4 1h-5l-3 1-1 1-2 1-13 9a51 51 0 0 0-13 49l1 3 1 3 1 2c0 3 11 18 16 20 4 2 4 4-1 4l-3 1-3 1-4 1-3 1-3 1-5 1-3 1-3 1-3 1-1 1-6 4-1 1-1 83v84h82v-38l-1-38-12-1-17-1-2-2v-2l-1-2-2-3-1-2v-1l-1-2-2-3-1-2-1-2v-3c-2-2-6-2 57-2 65 0 59-1 57 4l-1 3-1 1-1 2-1 3-1 2-1 2-1 3-1 1-1 2-1 3-18 1h-12v77h46v-51l1-53h30l1 40v39h27l28 1v2l-2 2-2 5-1 1-1 2-1 2-1 2-1 2-1 1-1 2-2 2 8 1h9v-51-52l1-1h15l16 1v103h38l-1-3-1-1-2-2-3-4-1-1v-1l-1-2-3-4-2-2v-1l-1-1-3-4-2-2v-1l-1-1-3-4-2-2v-1l-1-1-3-4-2-2v-1l-1-1-2-2-1-1v-6l1-1 4-4 1-2 1-1 1-2 1-2 2-1 1-1 1-2 2-3 1-2a183 183 0 0 0 17-20v-1l1-1 1-2 2-2 2-2h17c19 0 19 0 17 3l-1 2-1 1-7 9-1 1-1 1-1 2-3 3-2 2-1 1-1 3a227 227 0 0 0-14 16l-1 1v1l-1 1-1 1-2 2c-1 1-1 3 1 4l1 2 1 1a110 110 0 0 1 8 11 28 28 0 0 1 5 7 42 42 0 0 1 7 9l7 8 2 3 1 2 2 1 1 2 1 1 1 2v1h41v-85a4185 4185 0 0 0-1-86l-14-5-3-1-4-1-4-1-4-1-5-1-2-1h-2l-1-1 3-2a50 50 0 0 0 14-15l1-1 3-7 1-4 1-4a71 71 0 0 0-1-27l-1-3-1-2-1-2-1-2-1-2-2-3-8-8-2-1-1-1-4-3-2-2-2-1-3-1-3-1a50 50 0 0 0-25 1l-4 1-2 1-1 1-2 1a52 52 0 0 0-17 19 53 53 0 0 0 5 55 77 77 0 0 0 11 11c2 2 2 3-1 3l-4 1-4 1-4 1-3 1-3 1-4 1a34 34 0 0 0-18 10c-5 4-5 4-7 1l-2-2-1-1c-4-4-11-7-17-8l-3-1-4-1-4-1-3-1-5-1-4-1a1236 1236 0 0 0 2-4 51 51 0 0 0 20-31l-1-21a108 108 0 0 1-2-9 184 184 0 0 1-3-6c-4-7-16-18-21-19l-3-1h-2l-3-1-3-1-4-1a36 36 0 0 0-20 3l-2 1-2 1-2 1a50 50 0 0 0-21 29c-2 4-2 20 0 26l2 8 1 2 6 10a62 62 0 0 0 11 10c2 2 2 3 0 3l-3 1a204 204 0 0 1-17 4l-3 1-4 1-3 1-2 1-2 1-2 1-1 1-4 3c-3 3-3 3-5 1-5-5-11-8-19-10l-4-1a102 102 0 0 0-15-4l-3-1c-3 0-4-1-2-2 3-1 12-10 13-13a179 179 0 0 1 5-7l1-3a56 56 0 0 0-2-45l-1-2-1-1-1-1c-1-3-8-10-12-13a23 23 0 0 0-8-4c-3-2-16-4-20-3m60 131l1 3 1 3 1 4 1 3 1 3v2-2l1-4 2-5 1-4v-1c0-3 4-4 7-3 1 1 2 1 1 2v4l-1 3-1 4-1 3-1 4-1 4-1 3c-1 4-12 4-12 0v-1l-2-5-1-3-1-3-1-4-1-3v-3l-1-4c2-2 6-2 8 0m26-1v29h-6c-2-2-1-28 0-29h6m12 1l1 10v11h4c6 0 6 0 6 3 0 4 0 5-9 5l-9-1-1-1v-13c0-13 0-14 2-15 1-1 5 0 6 1m21-1l1 1 2 3 1 2 1 2 1 1 1 3 1 2v2-1l1-8v-7h6l1 1v27l-1 1h-8l-3-5-1-2-1-2v-2l-2-2v5c0 8 0 9-4 9s-4 0-4-15c0-13 0-14 2-15h6m27 1v28h-6v-29c1-1 6-1 6 1m19-1c2 1 3 4 4 7l1 3 1 3 1 4 1 3 1 3v6c-2 2-7 0-8-3l-1-1-3-1c-3 0-4 1-5 3l-4 3c-3 0-5-2-4-4l1-2v-3l1-3 1-3 1-4 1-3 1-3 3-4c1-1 6-2 7-1m19 1v10c0 11 0 11 3 11s3 0 3-11 1-12 6-11c3 0 3 0 3 12v11l-6 6h-1c0 1-6 2-8 1l-2-1-2-1-2-2-1-1-1-2v-21c1-2 6-3 8-1m36 0v6h-10v1 1l1 2h3l4 2 1 1 2 1 1 2v3c0 5-2 9-5 9h-1c-2 1-6 2-8 1l-4-1c-2 0-3-1-3-4 1-4 3-4 8-3 3 1 5 1 5-2l-3-1-3-1-2-1-2-1-1-2c-2-1-2-9-1-10l1-2h1l2-1c2-2 13-2 14 0m-59 12l-1 3v1h4l-1-1-1-3v-1l-1-1v2" fill="#fff"/><path d="M0 21v22h1l4-1c13-4 29 5 33 17l1 3a39 39 0 0 1-1 24l-1 2a475 475 0 0 0-9 11c-2 1 0 2 5 3l4 1 4 1c6 1 10 4 14 8 1 2 1 1 1-6l1-10 1-3 1-3 1-1 1-2 1-2 11-9c6-3 18-3 22-1l2 1 2 1 1 1a33 33 0 0 1 13 19l1 9 1 7 1-1c2-3 8-7 13-8l5-1 4-1c4 0 6-2 5-3l-6-6a33 33 0 0 1-4-6c-3-6-4-19-2-24l1-4a32 32 0 0 1 16-16c8-4 20-2 27 3a43 43 0 0 1 8 9l1 2 1 2a33 33 0 0 1 1 24c0 3-7 13-11 15-2 2 0 3 5 4l4 1 4 1c9 2 16 9 17 17 1 2 1 3 4 3l4 1c4 2 5 1 3-2a34 34 0 0 1 0-37 29 29 0 0 1 35-10l5 3 2 1c4 3 9 12 10 18a42 42 0 0 1-3 22 1578 1578 0 0 0-9 11c-2 1-1 2 2 3l4 1 6 1v-8l1-10 1-2c0-2 8-9 11-10l2-1 4-1 4-1 4-1c6-1 6-2 3-4-4-3-10-12-10-14l-1-3V64l1-3c1-5 10-15 14-17l2-1 3-1 5-1c7-2 19 3 26 11 2 2 4 8 4 9l1 2c2 3 2 15 0 19-3 8-7 13-11 16-2 2-1 3 4 4l5 1 4 1c5 2 10 4 13 8 2 3 2 2 2-4a37 37 0 0 1 2-16c0-3 7-11 12-14 6-4 20-6 24-3l2 1V0H0v21m57 94s0 1 0 0v-1 1m53 7l-8 8-1 2c-1 1-1 1 4 2l4 1c3 2 3 2 3-7s0-10-2-6m-52-1c0 2 0 3 2 2v-1c-1-2-1-3-2-1m304 0c-1 2 0 8 1 10 4 3 4 3 7 3 5 0 5-1 1-4l-7-8c-1-2-1-2-2-1m-94 135c-5 2-5 13 1 14 7 1 9 4 7 7-1 1-4 2-7 0-4-1-5 0-5 3 0 2 1 2 3 2h3c4 1 10 0 12-2v-10c-1-1-3-3-7-4-3 0-5-2-5-4 1-2 2-2 7-2h4l1-1c1-3-2-4-8-4l-6 1m-152 0v4l1 4 1 3 1 4 1 3 1 4 1 2c0 2 1 2 5 2s4 0 5-2l1-5 1-3 1-3 1-4 1-3c2-4 1-7-2-7-3 1-3 1-5 9l-1 5-1 3-1 3-3-9-1-3-1-3c0-4-4-6-6-4m27 0v26h5v-26h-5m11 0v26h16v-4l-5-1c-6 0-5 1-5-11 0-11 0-10-3-11l-3 1m21 0v26h4l1-7c0-8 0-10 2-7a31 31 0 0 0 3 6l1 3a49 49 0 0 0 2 3c1 2 1 2 4 2 4 1 4 1 4-13s0-14-3-14c-3 1-3 1-3 8s0 10-1 8l-1-1-1-3-1-3-1-1-1-2-4-6-5 1m27 0v26h6v-26h-6m18 0l-2 4-1 4-1 3-1 3-1 3-1 3c-2 4-1 6 2 6h2l1-2c1-4 11-4 11 0l4 2c3 0 3 0 2-3l-1-4-1-3-1-3-1-4-1-3-2-5-1-2h-3l-4 1m20 0v22l4 4c7 2 13 0 15-4v-22l-2-1c-3 0-3 0-3 11v9l-2 1c-1 2-3 2-5 1s-2-2-2-11v-9l-1-1h-4m-15 9c1 1 2 6 1 7h-5v-2l1-3c0-5 1-5 3-2M42 298l1 4 1 3 1 1 1 2 1 2 1 2 1 2 1 2 1 3 2 3h14l15 1 1 39v38h31v-39-38l15-1 15-1a283 283 0 0 0 10-23l-56-1H43l-1 1m120 0v102h36l36-1v-1l2-2a115 115 0 0 1 7-12l1-2 3-4c1-2 0-2-27-2h-27l-1-39v-39h-30m92 0h-1v102h30v-50a2846 2846 0 0 1 0-52h-29m86 0h-15l-2 2a68 68 0 0 1-5 5l-4 6a98 98 0 0 0-7 10 3748 3748 0 0 0-14 17l-7 10 1 2 2 3a112 112 0 0 0 8 11 84 84 0 0 1 7 8l1 3a124 124 0 0 1 9 12 132 132 0 0 1 10 13h17c18 0 18 0 16-2l-5-6-2-2-2-3a28 28 0 0 0-3-4l-2-3a973 973 0 0 1-10-13l-3-4a116 116 0 0 1-5-7c-7-7-7-8-3-12a145 145 0 0 0 8-10 221 221 0 0 1 12-15l2-3 4-5 10-13-2-1-16 1" fill="#017455"/><path d="M9 41a232 232 0 0 0-8 2H0v95a954 954 0 0 0 2 94 39 39 0 0 1 7-5l3-1 3-1 3-1 5-1 3-1 3-1 4-1 3-1 3-1c5 0 5-2 1-4-5-2-16-17-16-20l-1-2-1-3-1-3a61 61 0 0 1 2-32l1-2 1-2 1-2a51 51 0 0 1 21-20l2-1 1-1 3-1h5l4-1a37 37 0 0 1 22 4l6 3a55 55 0 0 1 18 24l1 4a56 56 0 0 1-8 44c-1 3-10 12-13 13-2 1-1 2 2 2l3 1 4 1a102 102 0 0 1 15 4c8 2 14 5 19 10 2 2 2 2 5-1a35 35 0 0 1 5-4l2-1 2-1 2-1 3-1 4-1 3-1 3-1 4-1a67 67 0 0 1 10-2l3-1c2 0 2-1 0-3l-2-1-9-9a41 41 0 0 1-7-12l-2-8a62 62 0 0 1 2-32l1-2 1-3 2-3a50 50 0 0 1 24-19l2-1a36 36 0 0 1 22 1l3 1h2l3 1c5 1 17 12 21 19a108 108 0 0 0 3 6l1 4 1 5 1 21-3 10a52 52 0 0 1-17 21l-3 2c-1 1-1 2 1 2l4 1 5 1 3 1 4 1 4 1 3 1a34 34 0 0 1 18 9l2 2c2 3 2 3 7-1l4-4 3-2 11-4 4-1 3-1 3-1 4-1 4-1 4-1c3 0 3-1 1-3l-2-1a77 77 0 0 1-12-13l-7-16a54 54 0 0 1 6-38l4-6a52 52 0 0 1 17-14l4-1 2-1a50 50 0 0 1 26 1l3 1 2 1 2 2 4 3 1 1 2 1 8 8 2 3 1 2 1 2 1 2 1 2 1 3 1 4c1 4 2 19 0 23a133 133 0 0 0-2 8l-3 7-1 1-1 1c0 2-8 11-13 14l-3 2 1 1h2l2 1 5 1 4 1 4 1 4 1 3 1a36 36 0 0 1 15 6V76l-1-1c-6-3-19-2-25 3-5 3-12 11-12 14l-1 2-1 14c0 6 0 7-2 4-3-4-8-6-13-8l-4-1-5-1c-5-1-6-2-4-4 4-3 8-8 11-16 2-4 2-16 0-19l-1-2c0-1-2-7-4-9-7-8-19-13-26-11l-5 1-3 1-2 1c-4 2-13 12-14 17l-1 3v17l1 3c0 2 6 11 10 14 3 2 3 3-3 4l-4 1-4 1-4 1-2 1c-3 1-11 8-11 10l-1 2-1 10v8l-6-1-4-1c-3-1-4-2-2-3a30 30 0 0 0 11-15c1-3 2-12 1-18a33 33 0 0 0-12-19 21 21 0 0 0-7-4c-2-1-9-2-14-1a29 29 0 0 0-23 20l-1 3c-2 8 0 19 5 26 2 3 1 4-3 2l-4-1c-3 0-3-1-4-3-1-8-8-15-17-17l-4-1-4-1c-5-1-7-2-5-4 4-2 11-12 11-15l1-3a33 33 0 0 0-3-23l-1-2-1-2-7-7a28 28 0 0 0-30-2 32 32 0 0 0-14 19 39 39 0 0 0 3 26 33 33 0 0 0 9 10c1 1-1 3-5 3l-4 1-5 1c-5 1-11 5-13 8l-1 1-1-7a30 30 0 0 0-2-13 33 33 0 0 0-15-17l-2-1c-4-2-16-2-22 1l-11 9-1 2-1 2-1 1-1 3-1 3-1 10c0 7 0 8-1 6-4-4-8-7-14-8l-4-1-4-1c-5-1-7-2-5-3a32 32 0 0 0 9-11l1-2 1-3c2-4 2-17 0-21l-1-3C35 49 19 39 9 41m48 73v1c0 1 0 0 0 0v-1m55 14c0 9 0 9-3 7l-4-1c-5-1-5-1-4-2l1-2 8-8c2-4 2-3 2 6m-52-6v1c-2 1-2 0-2-2 1-2 1-1 2 1m304 0l7 8c4 3 4 4-1 4-3 0-3 0-7-3-1-2-2-8-1-10 1-1 1-1 2 1M116 254c-2 0-3 3-1 5v3l1 3 1 4 1 3 1 3 2 5v1c0 4 11 4 12 0l1-3 1-4 1-4 1-3 1-4 1-3v-4c1-1 0-1-1-2-3-1-7 0-7 3v1l-1 4-2 5-1 4v2-2l-1-3-1-3-1-4-1-3c0-3-3-5-7-4m26 0c-1 1-2 27 0 29h6v-29h-6m12 0c-2 1-2 2-2 15v13l1 1 9 1c9 0 9-1 9-5 0-3 0-3-6-3h-4v-11l-1-10c-1-1-5-2-6-1m21 0c-2 1-2 2-2 15 0 15 0 15 4 15s4-1 4-9v-5l2 2v2l1 2 1 2 3 5h8l1-1v-27l-1-1h-6v7l-1 8v1-2l-1-2-1-3-1-1-1-2-1-2-2-3-1-1h-6m27 0v29h6v-28c0-2-5-2-6-1m18 1l-3 4-1 3-1 3-1 4-1 3-1 3v3l-1 2c-1 2 1 4 4 4l4-3c1-2 2-3 5-3l3 1 1 1c1 3 6 5 8 3v-6l-1-3-1-3-1-4-1-3-1-3c-1-3-2-6-4-7-1-1-6 0-7 1m20-1c-2 1-2 2-2 13v10l1 2 1 1 2 2 2 1 2 1c2 1 8 0 8-1h1l6-6v-11c0-12 0-12-3-12-5-1-6 0-6 11s0 11-3 11-3 0-3-11v-10c-1-1-4-2-6-1m28 1l-2 1h-1l-1 2c-1 1-1 9 1 10l1 2 2 1 2 1 3 1 3 1c0 3-2 3-5 2-5-1-7-1-8 3 0 3 1 4 3 4l4 1c2 1 6 0 8-1h1c3 0 5-4 5-9v-3l-1-2-2-1-1-1-4-2h-3l-1-2v-1-1h10v-6c-1-2-12-2-14 0m12 0c2 1 2 2 2 4l-1 1h-4c-5 0-6 0-7 2 0 2 2 4 5 4 4 1 6 3 7 4v10c-2 2-8 3-12 2h-3c-2 0-3 0-3-2 0-3 1-4 5-3 3 2 6 1 7 0 2-3 0-6-7-7-6-1-6-12-1-14 3-1 9-2 12-1m-160 1l2 4 1 3 1 3 3 9 1-3 1-3 1-5c2-8 2-8 5-9 3 0 4 3 2 7l-1 3-1 4-1 3-1 3-1 5c-1 2-1 2-5 2s-5 0-5-2l-1-2-1-4-1-3-1-4-1-3-1-4v-2c-1-2 1-3 4-2m28 0v26h-5v-26h5m11 0l1 10c0 12-1 11 5 11l5 1v4h-16v-26h5m21-1l4 6 1 2 1 1 1 3 1 3 1 1c1 2 1-1 1-8s0-7 3-8c3 0 3 0 3 14s0 14-4 13c-3 0-3 0-4-2a61 61 0 0 0-2-3l-1-3-1-2-2-4c-2-3-2-1-2 7 0 7 0 7-3 7-3 1-3 1-3-13 0-15 0-15 6-14m28 1v26h-6v-26h6m20 1l2 5 1 3 1 4 1 3 1 3 1 4c1 3 1 3-2 3l-4-2c0-4-10-4-11 0l-1 2h-2c-3 0-4-2-2-6l1-3 1-3 1-3 1-3 1-4c1-4 2-5 6-5h3l1 2m16-1l1 1v9c0 9 0 10 2 11s4 1 5-1l2-1v-9c0-11 0-11 3-11l2 1v22c-2 4-8 6-15 4l-4-4v-22h4m-22 7v4l-1 3c-1 2 0 2 3 2s3 0 2-3c-1-5-3-8-4-6m2 3v1l1 3 1 1h-4v-1l1-3v-2l1 1M42 296c-2 0-2 1-1 2v3l1 2 1 2 2 3 1 2v1l1 2 2 3 1 2v2l2 2 17 1 12 1a1310 1310 0 0 1 1-1l-15-1H53l-2-3-1-3-1-2-1-2-1-2-1-2-1-2-1-2-1-3-1-2 1-1h111l-1 4-1 2-1 2-1 2a48 48 0 0 1-4 7l-2 6-15 1-15 1a1216 1216 0 0 0 1 39v-39h12l18-1 1-3 1-2 1-1 1-3 1-2 1-2 1-3 1-2 1-1c1-1 2-6 1-7H42m120 0l-1 54a457 457 0 0 0 1-1v-51h30a1179 1179 0 0 1 1 78 858 858 0 0 0 54 2l-3 4-1 2-1 2a335 335 0 0 1 6-8v-2l-28-1h-27v-39l-1-40h-30m92 0c-3 0-2-3-2 53a461 461 0 0 0 1 0l1-51h28l1 51 1 51V297c-1-1-26-2-30-1m72 0l-5 5-1 2-1 1h-1l-2 2-2 4-1 1-1 2-1 1-4 4-1 2a51 51 0 0 0-6 8l-2 3-1 1-2 1-1 2-1 2-1 1-1 2-4 4-1 1v6l1 1 2 2 1 1v1l2 2 3 4 1 1v1l2 2 3 4 1 1v1l2 2 3 4 1 1v1l2 2 3 4 1 2v1l1 1 3 4 2 2 1 1 1 1 1 2c1 0 1-1-1-3a126 126 0 0 1-8-10 256 256 0 0 1-15-20 84 84 0 0 0-4-6 108 108 0 0 0-8-11l-1-2 7-10a55 55 0 0 0 4-6 178 178 0 0 0 14-17l3-4a42 42 0 0 0 5-7 59 59 0 0 0 5-5l1-1h33l-10 13a101 101 0 0 0-6 8 105 105 0 0 0-8 10 221 221 0 0 0-12 15c-4 4-4 5 3 12l2 3 3 4 3 4a232 232 0 0 1 13 17l2 3 2 3 2 2 5 6 1 1v1l1-1-2-2v-1l-1-2-2-1-1-2-2-3-7-8-1-2a42 42 0 0 0-6-7l-5-7-1-1-1-2-1-1-1-2a125 125 0 0 1-6-8c-2-1-2-3-1-4l2-2 1-1 1-1v-1l1-1 2-2 2-2a227 227 0 0 1 11-15l1-1 2-2 3-3 1-2 1-1 1-1a45 45 0 0 0 8-10c1-1 2-4 1-5h-33" fill="#cbd22c"/></g></svg>
