<svg version="1" width="400" height="205" xmlns="http://www.w3.org/2000/svg"><g fill-rule="evenodd"><path d="M12 57v22l-1 2a367 367 0 0 1-6 10c-4 7-5 8-4 10 1 3 1 3 9 3h6-6c-6 0-6 0-7-2-2-1-2-3-1-5l7-11v-1h14c1 0 1 0 0 0l-1-2-1-3-1-1V69 58v-1h-8m117 2v19l-3 4-1 18-1 19c-4 4-12 4-14-1l-1-2v-15h-2v16l1 1c2 4 5 5 10 5 3 0 5-1 7-3 2-3 2-2 2-20l1-18c2-4 8-4 11-1l1 8v4l1 1h1V83l-1-1c-2-4-5-5-10-5l2-8c3-2 5 0 6 6 0 3 0 3 1 2l1-6v-4-8h-12M19 59h-2 2m62 0l-1 15 1 14v4c0 3 1 3 2 3h1v-7l1-1V74 60l-2-1h-2m110 2v2l1 4v4l1 1 1 1h-1v6l-1-4v-3 8h5v-2-2c-1-1-1-1 2-1 2 0 3 0 2 1 1 1 0 1-1 1-2 0-2 0-1-1h-1v1h1l2 1-1 1h-1 1l1 1 1-9v-9-2l-11 1M19 68v7h-1c-2 0-3-1-1-1v-2-2-1l-1-1h1v-2c-1 0-1 0 0 0v-1-1h-1l1-1v-1h-1l2-1h1v7m197-6c-2 0-3 1-4 3l-1 1v7c0 8 0 7 3 7l4-1h7l-1-6c0-9 0-10-6-12l-2 1M98 63c-4 3-4 3-4 13v8h1v-7l1-10 2-3 3-2-3 1m16-1l2 1 3 4 1 1 1 2v14l1-8v-8l-1-1-4-4-2-1h-1m105 8l-1 9a122 122 0 0 1 1-9m21-8l1 1 1 1h-2v2h1l1 1-1 1c-1-1-1 0-1 1h1l1 1-1 1-1 1h1l1 1-1 1h-1v2h2l-1 1h-1v2h1l1 1-1 1c-1-1-1 0-1 1v1l1-1h1v1l-1 1-1 1 1 1c1-1 1 0 1 1h-1v1l1 2v4h1l-1 1v2h24l1-12V73h-11V62h-6c0 1 0 1 0 0l-1 1h1c3 0 5 4 5 7-2 7-12 6-12-1-1-3 2-6 4-6l1-1h-8M84 63v1h-1l1 1v8l-1 1h1v1 2 4 2 2h-1l1 1v1l-1 3v3l-1-3v-3l-1-1v-1-1l1-1h-1v-1-1-1h1l-1-1v-1-1-1-1-2-2-2-1-1h1v-1c1 0 1 0 0 0v-1-1l-1-1h3m67 19v19h2a294 294 0 0 0 17 0h9V64h-5v1c1 1 1 1-9 1-11 0-10 0-10-1v-1h-4v18m97-17l-1 1v2h-2v2h2l1 2v1h2v-3h3v-2h-3v-2c0-1-1-2-2-1m-47 1c1 1-3 2-4 1v-1h4M32 68v15l-2 1-2 2v1l1 1v1l1 2 1 1 1 1h13c1 1-1 6-4 9-2 1-2 1 0 0a11 11 0 0 0 4-13c0-2-4-5-6-6h-1v-7-7-1h-6m135 0c2 1 3 3 3 5 0 6-7 8-10 3-3-4 1-10 7-8m34 0l-1 1-1-1h2m-37 1v2l-2 1c-1 0-2 0-1 2h1l2 2 1 1 1-1 1-2h1v-2h-2v-1l-1-2h-1m37 0l-2 1h-2l4-1m0 2l-1 1-1-1h2M37 77v5h-1l-1-1v-1-1c1 0 1 0 0 0v-1-1-1-1-1c1 0 1 0 0 0v-1-1l1-1h1v6m17 2v7h18v-7l1-7H54v7m147-7c1 1 0 1-2 1s-3 0-2-1h4M66 74c4 2 4 7 1 9-1 2-3 3-4 2h-1c-3-1-5-5-4-8l4-3 1-1 3 1m135 0h-2 2M62 76v2h-1l-1 1 1 1h1v2l1 1h1v-2l2-1 1-1h-1c-2 0-2-1-2-2s-1-2-2-1m165 4c-7 2-9 13-1 16l3 1V80h-2m3 1a111 111 0 0 1 0 16l7-4v-1l1-2c1-3-2-8-5-9h-3m-52 1h-17l9-1 8 1m-20 2v2h-5v-5h5v3m20 0h-9 9m0 2l-9 1h-8l10-1h7m189 0l1 2 4 4h-1l1 1v7l-1 1v2h-1v2h-1-1l-1 1h26a207 207 0 0 1-1 18l-1 1h-8 4l6-1v-18c0-22 1-20-5-20l-5 1h1v1h-5v2c0 2-1 0-1-1v-2h-3v1h-1-1l-1-1h-2l-3-1m-189 3h-17l8-1 9 1m215 0l-3 1c-2 0-3 0-2-1h5m-235 0v5h-5v-2c0-3 0-3 2-3h3m235 2h-3 3m-215 0l-9 1-8-1h17M27 91l1 3v-1l-1-2m366 1l-3 1-2-1h5m-215 2h-17l8-1 9 1m215-1l-2 1-1-1h3m0 2l-2 1-3-1h5m-215 1h-17 17m-20 2c0 3 0 3-3 3l-2-1v-4h5v2m-18-1v2c1 1 3 0 3-1 0-2-2-2-3-1m253-1l-2 1-1-1h3M31 98c0 2 0 4-2 5l-1 1 1-1c2-1 3-3 2-5m362 0l-5 1v-1h5m-215 0l-9 1-8-1h17m215 1l-2 1-1-1h3m-215 1l-9 1c-9 0-8 0-8-1h17m136 1h1-1m79 0v2l-3-1h-1l-1-1h5m0 2l-3 1h-2l5-1m0 2l-2 1-1-1h3m-137 2l1 1v-1h-1m107 2l1 13v-3a63 63 0 0 0 0-10c0-3-1-3-1 0m-316 2h-2v1h-1l-2 2-4-2h-3l-1 20c0 22 0 21 2 22l1 1h30v-3c1-4 1-5 1-1v3h14c16 1 16 1 17-1l1-20a104 104 0 0 0-1-21l-1-1H87c-12 0-11 0-11 2l-2 2h-6v2c0 2 0 2-1 0v-2h-7l-1-2c0-3-2-3-12-2m220 2c-2 1 0 3 2 2v-3h-1l-1 1m-246 0l1 1v1h2l-1-1-2-1m201 1l-1 1h-1c-12 3-14 18-4 24l1 2c2 4 8 1 7-2s-4-3-5-2-2 1-4-1c-5-6-3-14 4-17l2-1c3 3 6 1 6-2 0-2-2-3-5-2m47 0l-1 1v-1h1m46 0v4h1v-2c0-2 0-3-1-2M6 115H5v1l1-1m190 3l2 1v-2h-1l-1 1M9 118h5c4 0 5 0 4-1l-9 1m145 0h-1a18 18 0 0 0-5 2l-5 3-5 10v1h1v1l-1 4v1h1v1l2 6 1-1h1v1l-1 1 1 1 4 2 1-2-1 2 1 1 5 1h1v-2-2l1 2v2h2l4-1v-3l1 2 4-2 1-1-1-1v-1l1 1h1l1-1 2-4h-2 2l1-1v-1l1-4v-1h-2l-2-1h4v-2l-2-4-1 1c-1-1 1-2 1-2l-2-4-2-1-1 1v-1l1-1-3-2h-3l-4-1h-2v1h-1v-1M9 119l-1 1 3 1 2-1h-2l-1-1H9m62 0a24 24 0 0 1 3 1l6 7v1h1c3 9-3 18-12 20h-2l-1-1c-2 0-6-1-9-4-8-8-3-22 8-24h6m171 1c-1 1 0 2 1 1v-1h-1m14 0l1 1 1-1h-2m-78 1l1 1h1v3c0 4 0 3 2 3h3l1-1 1 1 1-2-1-3h-1c-2 0-3 0-2-1h3v-1 1l3-1h-12m9 1h-2-1l1-1 2 1m151 0l-1 4c-1 6-1 6-2 2l-1-5-1 2c-1 3 0 3-6 3s-6 0-5 1h11v-1l1-1v1a138 138 0 0 1 1 7l2-5a3064 3064 0 0 0 6 13l1-1a204 204 0 0 0-2 2 274 274 0 0 0-4-22m-322 0l-1 1h1l2 1 1 1v-1h1l-1-1-3-1m167 0h-2 2m-118 2v3c0 4 0 4-4 4h-3v2c0 3-1 3 3 3h4v7h2l1-1h1l1-3v-3l4-1h2l1-2v-2h-4c-4 0-3 0-3-4l-1-3h-2-2m122 0v2h-1l-1-1-1-1h3m8 0v2l1-1c0-1 0-2-1-1M6 124c-2 1-2 3 0 4s4-2 2-3l-2-1m190 0v3l1-2c0-1 0-2-1-1m174 1v2c0-2 1-2 2-2h-2m-117 1c-1 0 0 2 1 1 0 0 0-2-1-1m14 0l1 1 1-1h-2m-80 1h-3l2-1 1 1m-73 0l2 1c2 1 2 4 0 4v1c-1 0-1 0 0 0s2 2 1 4l-1 1c1 0 2 2 1 3v1l-1 1c2 1 2 4 0 4h-1l1 1c2 1 2 3 0 4l1 1v1c1 0 1 1 1-12a159 159 0 0 1 0-12l-4-3m-92 1v2h1v-2h-1m333 0h0m-153 1v0m-7 1v9a97 97 0 0 0 3 12v3l1-16v-4h-1l-1-1a60 60 0 0 0-1-3v2c0-4-1-5-1-2m182 2a1486 1486 0 0 0 0 16c0 7 0 7 2 7v-7 2c0 2 0 2-1 1v-2c0-5 0-8 1-6v-14h-2v3m-214-2l-1 2a103 103 0 0 0-5 2l-1 2a88 88 0 0 1-7 11l1-4a447 447 0 0 0 5-11h2a1508 1508 0 0 1 6-2m78 1v3h3l-1-3h-2m22 0c-1 2 0 4 2 3v-3h-2M7 132h0m113 1h2l-1-1h-1v1m-3 0h-1l1-1v1m37 0c-1 1 0 2 1 2v-2h-1m211 0c-4 2-6 7-3 11l1 3 1 1h1v-1-2-1l-1-1v-1l-1-1c-1-1 0-2 2-1h1v1h1l1-1h1v-1c1 0 0 0 0 0l-1 1h-1 1v-1c-1 0-1 0 0 0h2v2l-1 1v1a848 848 0 0 1-1 4v1h1l1-1 2-4v-1l1-1v-3l-1-1c-1-3-4-4-7-4m3 1h-1 1m-346 0v1h2l-1-1h-1m180 1v1-1M5 135l-1 2c0 3 4 3 4 0 0-1-1-2-3-2m366 1h1v6l-1 1h-1v1c-1-1-1 0-1 1v0-1h2l-1 2-1 1c0 1 0 1 0 0l-1-1v-1h1v-1-1l1-1v-1l1-1v-1h1l-1 1v2h-1 2v-1l-1-1h1v-1-1l-1-2v2l-1-1v-1h1m-4 0v-1 1m-243 1a683 683 0 0 1 1 1c3 0 3 4 0 4s-3 1 0 1c2 0 3 1 2 3l-3 1c-3 0-3 1 0 1s3 0 3 2l-2 2h-2v1l3 1c2-1 2-1 2-9v-7h-1l-1-1h-2m245 1h-1 1m-350 1l-2 2h-2l1 1 5-2v-1h-1-1m233 0l1 1 1-1h-2m-51 0v5l1-3-1-2m164 4h1l-1-1v1m2 0v1l1-1v-1l-1 1m3 0h1-1M9 143v3l1-1 2-1h1l-1-1H9m334 3v-1 1m-333 0c-1 1-1 1 4 1h5l-9-1m-6 3l1 1h1v-1H4m18 1l-1 2c1 2 4 2 4 0s-2-3-3-2" fill="#fff"/><path d="M57 58v4c1 1 1 3-1 3-1 1-2 2-2 5v1h19v-1c0-3-1-4-3-5v-3-4H57m110 3l1 1h3l5 1 3 1v37l-14 1-14-1V64l2-1h4l2-1h2l1-1v-1h-7l-7 1v44h34V60h-14l-1 1m-65-1c-2 1-1 3 1 2l2-1-3-1m9 1l1 1c1 1 3 0 2-1h-3m52 0l3 1-1-2-2 1m158 0v3c-3 12-3 12-4 8l-2-9-2 3-1 3-9 1-9 1h10c11 0 10 0 10-2 1-2 1-1 2 3a166 166 0 0 0 0 7l2 2 2-8 2-6 1 5 2 11c2 16 2 14 3 14l1-2a7160 7160 0 0 1 6-23c1-2 0-2 8-2h7v1c2 2 5 1 5-1 0-3-3-4-5-2v1h-8c-8 0-8 0-8 2a458 458 0 0 1-6 21l-1-6a366 366 0 0 0-6-25m-49 1v7h16l1-4c0-4 0-4-3-4l-1 1c-1 1-1 2-5 2l-5-1c0-2-2-2-3-1m94 0l-2 2h1c1-2 3-2 5 1l-1 2-3 1-3 1c-2 2-3 2-2 0l-1-2 2-2h-1l-2 2v5c-2 3-1 6 2 6 1 0 1 0 0 0-3-1-3-3-1-6l2 1 1 2 2 1 3 2 2 1-1 1-2 1c0 1-3-1-3-3l-1-1c0 2 2 5 3 5 2 1 4 0 4-1l1-2h1c4 1 5-2 3-5v-1 1c1 2 0 4-2 4h-2l1-2v-8h3l1 2-2 2v1h1l1-1v-5l-2-1h-3v-1c-2-3-3-4-5-3m-2 3v0m7 3l-1 10-7-5-1-2 1-1a17 17 0 0 1 6-3l2 1m-21 9h-1a211 211 0 0 1-3 2c-4 2-5 9-3 14l1 1v1l-1 1c-1 2-1 2-3 1l-1-1v1c2 0 1 1 0 3a212 212 0 0 0-10 9l-1-1h-1l2 3c1 0 3-1 12-10l2-2-1-1 2-1 1-2 1 1c9 7 21-3 16-14l-6-4-1-1h-5m5 2l2 1 1 2 1 1c4 5 0 12-7 12-9 0-11-12-2-16h5m-67 1v7h16l1-3c0-4 0-4-2-4l-2 1c-1 2-10 1-10 0s-2-2-3-1m-91 1h2-2m176 0l-1 3v2h1l1-1 4-1 5 1v1h1v-2c0-3 1-3-5-3h-6m-174 1h1c1 0 0 0 0 0h-1m-2 2h2c2 0 2 0 0 0h-2M93 84v4c1 5 5 9 10 11l1 1 5 1h2l1-1v-1h1c5-3 9-8 9-13 1-2 0-2-1-2h-1v2c0 4-4 9-8 10h-9c-4-2-8-6-8-10l-1-2h-1m106 1h1-1m115 2l-1 7v6h-1 8l-1-1v-6l-1-6h-4m-117 0h4l-2-1-2 1M54 88l2 4 1 1h6c9 0 10 0 10-5v-1H54v1m145 0h1-1m-2 2h4-4m2 1h1-1m-2 1l2 1 2-1h-4m2 2h1c1 0 1 0 0 0h-1m-60 1c-3 2-2 6 2 7 4 0 6-5 2-7h-4m58 0h2-2m-55 1l1 3c-1 2-4 1-4-1s2-3 3-2m57 1h2l-1-1-1 1m-2 1h2-2m2 2h2l-1-1-1 1m-146 0l-1 5v4h-1v1h6l-1-1v-3-4h11c13 0 12 0 12 4v3h-2v1h3l4-1h-1l-1-5v-4H53m144 1h2-2m29 5c-2 0-2 0-2 3v2h-2v1l1 1c2-2 6 2 4 5-1 2-3 2-4 2h-1l1 1h1v3l1 3 1 1c0 2 0 2 2 2h1v-2l1-1h1v-21h-5m165 2h1-1m-136 2v2l2-3c-1-1-1-1-2 1m135 0h-2 2m-210 1v1l1 4 1 4h4v-4l1-4 1-1h-8m210 0h0m-235 1h-1a26 26 0 0 0-9 3 22 22 0 0 0-1 39l1 1a20 20 0 0 0 7 1l2 1 10-2a22 22 0 0 0-9-43M7 113v1h7l7-1-7-1H7v1m383 0h0-2 2m-143 1h2-2m-3 3l-1 2 3-4c-1-1-1-1-2 2m-223-2v1h2v-1h-2m224 2l-1 3 3-5-2 2M6 116c-1 0-2 2 0 3 1 2 4-1 2-3H6m148 0h2a19 19 0 0 1 0 37h-1a15 15 0 0 1-10-2 21 21 0 0 1-7-8l-1-2-1-1v-1-8a21 21 0 0 1 4-9c3-3 9-6 12-6h2m100 0l2 3v-2c-1-2-2-2-2-1m12 1a96 96 0 0 1-1 2l2-3-1 1m123-1h1-1m-235 1l1 2v-1c0-1 0-2-1-1m237 0h1-1m-193 1h0m-180 1l-5 2-5 3 1 1h1l4-2 5-3h1l-1-1h-1m144 0c-1 0-1 0 0 0v-1 1m228 0h-2 4v-1l-2 1m-153 1l2 1 2-1h-4m21 0v1h5v-1h-5m132 0h0m-147 1l1 3c1 2 1 2 2 1l-3-4m22 0v1l1 2c1 2 1 2 2 1l-3-4m-10 2l-1 3 2-3 1-2-2 2m3-2l-3 6 2-3 1-3m6 0l3 6-1-2-2-4m126 0l-1 1h3c1-1 0-1-2-1m-224 1v1l1-1h-1m31 2v9h3v-9h-3m82 1l-1 1v2h4v-4h-2l-1 1m-32 0c-1 1 0 1 3 1l3-1h-6M9 126l5 1h4v-1H9m364 1c1 2 1 2 5 2l5-1v-2 1l-5 1c-4 0-4 0-4-2l-1 1m-126 0h5l-2-1h-3v1m-48 0v2l-1-2v-1l1 1M4 128v2h1c1 0 2-1 1-2H5 4m240 1v2l2-3c-1-1-1-1-2 1m10-1l1 2 2 2-3-5v1m12 1v2l2-3c-1-1-1 0-2 1m-95-1h-1 1m28 2h-1v-1l1 1m-177 0v3c1 2 3 1 3-1s-2-3-3-2m136 2h-3v4c-1 1-3-1-2-3 1 0 1 0 0 0l-1 3v2a28 28 0 0 0-1 4l-1 3v-1l1-1a56 56 0 0 1 5-7l3-3 1-1h1l1-1-4 1m100 1h0m-4 2c-2 2-2 3-1 3l3-5-2 2m60-2l-2 3-1 1c-2-1-5 0-5 2v3c2 1 2 1 1 2-3 3-2 5 1 6v-1c-2 0-2-2-1-5l3 1 2 3 2 1 3 2-1 1-1 1c-1 1-3-1-4-3v-1 1l1 1c1 3 5 5 5 2l1-1v-1h2c3 0 4-1 4-3l-2-3 1 1c1 3 0 4-3 4l-1-2v-8l1-1h1l1 1c2 0 2 2 0 4v1l1-1c2-2 2-4 1-5-1-2-2-2-3-1h-2l-1-1c-1-3-2-4-4-4m-130 1h0m71 2l-1 2s0 1 0 0l3-4c-1-1-1 0-2 2M5 134H4v1h1l1-1H5m164 0l1 1h2l-3-1m147 1c2 2 2 3 0 4l-3 1-2 1h-1l-2 1v-1-2c-1-1 2-3 3-2h1c0-2 3-3 4-2m-179 0h2l-1-1-1 1m48 0l1 1 1-1h-1-1m-1 2h1l2-1-3 1M8 137v1h11v-1H8m177 1h0m39 0c1 4-2 6-5 5-1 0-1-1-2 4s0 5-3 5c-2 0-2 0-2 2s-1 2 13 2h13v-4h-5l-6-1v-11h4c4 0 5 0 4-2h-11M7 139v1l7 4 4 1 1 1v-1l1-1h-1l-5-3-5-2H7m177 0h1-1m134 0v11c-2 0-9-6-9-7l6-3 2-1h1m-195 2v-1 1m246-1l-1 1h-4c0-1-1-1 0 0l1 1h1v6l-1 1h-2 2l2 1h-2l-1 1h1l2 1h-2c-1 0-2 0-1 1h1l2 1c-1 0-1 0 0 0h1v-1l2-1v-1-2l-1-1h-1v-1l-1-2v-3h2c0 1 0 1 0 0v-1-1m-199 1l1 1-2-1h1m82 0h-2c-2 0-3 2-2 3l1 1 1 6v2l-1 2 2-1 1-1h11c2 0 3-2 3-5v-1l1-1h2l1 3c0 2 1 4 3 4h10l2 1 1 1v-2l-1-1 1-1 1-6 1-1v-2h-5l-31-1m44 2h-2v3h4v-2l-2-1m-32 0c1 1 1 2-1 2l-5-1-1-1v1l2 2h1l-3 1h5c3 0 3-1 3 1-1 4-1 4-7 4-7 0-8 0-8-4v-2c-1-2 0-3 5-3h9m14 0l1 1-1 1h8v1l-2 5-1-1-4-3v1l4 4h-10l-1-1-1-5v-2l1-1h6m-9 1l-2 1-1-2 3 1m-85 0l-1 6v6h1v-6-6M6 145l-1 3c2 2 5 0 4-2 0-1-1-2-2-1H6m117 1v-1 1m43 0l1 1v-1h-1m-144 2v1l-1 1h1l1-1v-1h-1m132 2l1 3v-2c0-1 0-2-1-1m7 0v0c0-1 0-1 0 0m-48 0v0M7 152h14l-7-1H7v1m191 3l1 2 1-1v-1h-2" fill="#2d3c51"/><path d="M57 58v7c-2 0-3 2-3 5v2h19v-2c0-2-1-5-3-5v-2-6H57v1m13 0v4 3c2 1 3 2 3 5v1H54v-1c0-3 1-4 2-5 2 0 2-2 1-3l-1-2c0-3 0-2 7-2h7m95 0v2h-2v1l1 1 1 2-1 1h-9l10 1c10 0 9 0 9-2h5l-3-1-5-1h-3l-1-1 1-1h14v45h-34V61l7-1h7v1l-1 1h-2l-2 1h-1-3l-2 1v37h28-28V64h5l1-1h2l2-1h1v-1-1h-14v1a685 685 0 0 0 1 46l4 2 2-1v-2c-1 0 0 0 0 0a374 374 0 0 1 27-1V60h-7l-8-1-2-1m-63 2l-1 1c0 1 0 0 0 0h3c1 1 0 1-2 1v1l3-1c1-1-1-2-3-2m10 0c1 0 0 0 0 0s-1 0 0 0m-1 1c-1 1 2 3 3 1-1 1-3 0-3-1s0-1 0 0m2 0h1l-1-1v1m53 0h-2c-1 0-1-1 1-1l1 1m155 0h0m-48 0l2 1-2-1h-1 1m14 0c2 0 2 0 2 4l-1 4c-1 0-1 0 0 0h1v-3c0-5 0-5-2-5h-2 2m-15 1l-1 3v4h1c1 0 1 0 0 0v-4-3-1 1m13 0l-1 1v1-1l1-1v-1 1m82 0c-2 0-3 2-3 3v0h-2c-3 0-3 0-4 2l1 3 1 1-1-2c-2-1 0-4 2-4h1l-2 2 1 2c-1 2 0 2 2 0l3-1 3-1 1-2c-2-3-4-3-5-1h-1l2-2c2-1 3 0 4 3l1 1h4c2 2 3 4 0 6 0 1 0 0 0 0 2-2 1-4 0-4h-3a36 36 0 0 1-1 10h2c2 0 3-2 2-4v-1 1c2 3 1 6-3 5h-1l-1 2c0 1-2 2-4 1-1 0-3-3-3-5l1 1c0 2 3 4 3 3l2-1 1-1-2-1-3-2-2-1-1-2-2-1c-2 3-2 5 1 6 1 0 1 0 0 0-3 0-4-3-2-6l1-1-2 3c-1 1-1 3 1 4l2 1h3l1 2 1 1c2 1 4 1 4-1s1-2 3-2c3 1 4-2 3-5l-1-1 1-1c2-2 2-3 0-5-1-2-1-2-2-1h-3v-1c-1-3-3-4-4-3m-92 0c0 2 2 2 6 2l3-1h-4l-4-1h-1m39 1v0c1-1 2-1 2 1v1-1c0-2-1-2-2-1m7 0v-1 1m47 0l2 3h-4l-1-1v-1l3-1M179 83c0 10 0 14 1 9a1959 1959 0 0 0-1-9m141-18v0l1-1-1 1m-6 0l-1 1 1-1v-1 1m2 1l1 2a128 128 0 0 1-1-2m47 0l-1 3-1 1v-1l-1-2v-1h3m2 0c2 1 2 1 0 2h-1v-1-1h1m-52 1c0 1 0 0 0 0v-1 1m7 0l-2 6 1-3a40 40 0 0 0 1-3m-122 0h1-1m122 5l-2 9-1-1h-1 3a613 613 0 0 0 4-9v4l-1-8-2 5m31-5l-1 1v1h-16 16v-1c2-2 5-1 5 2 0 2-3 3-5 1v-1h-7c-8 0-7 0-8 2a843 843 0 0 1-8 23l-1-1v1c1 3 2 3 3 0a316 316 0 0 1 7-24h14c1 2 4 2 5 0 1-3-2-5-4-4m18 0v1a17 17 0 0 0-7 3l1 2 7 5 1-7c0-4 0-4-2-4m4 1h2v4h-1l-1-1-1-2v-1h1m-174 0h1-1m116 0l-1 1c0 2 1 2-10 2h-10l9-1a44 44 0 0 0 9-1h-9l-9 1c-1 1 0 2 3 2h9c8 0 8 0 8-2l1-1v-1m55 1h1v3c0 3 0 3-2 4s-2 0-5-2l-1-1v-3h1c3-2 4-2 6-1m-3 1h1l-1-1v1m-169 0h1-1m136 0v0s0-1 0 0M17 70h1c1 0 0 0 0 0h-1m346 1l-1 1 1-1m10 1v2h-1v-2h1m-174-1h1c1 0 0 0 0 0h-1m134 1v0m-135 1h1-1m164 0l1 3-1 1h-1v-2-1l-1-1h2m13 0h-1v-1l1 1m-57 1c-1 1 0 1 0 0 0 0 0-1 0 0v-1 1m15 0h-1 1c0-1 0 0 0 0m42 1c0 2-1 3-3 3h-1l1-1c0-3 3-4 3-2m-43 1v-1 1m33 0v1h-1v-2l1 1m5 1h-1l1-1v1m-20 0c-7 1-11 9-7 16 1 1 1 1-1 3l-1 1-1-1-2 1-3 3a645 645 0 0 0-7 9l9-7 2-2c1-2 2-3 0-3v-1l1 1c2 1 2 1 3-1l1-1v-1l-1-1c-2-5-1-12 3-14l1-1h1l1-1h6l1 1 5 3 2 6c0 1 0 1 0 0v-2c-1-5-7-9-13-8m-151 0h1-1m117 0v0m16 1c-1 0-1 0 0 0v-1 1m36 0l1 1v1l-2 1-2-2c-1-1-1-1 1-1h2m-171 0h1c1 0 1 0 0 0h-1m134 2v-1 1m19-1c-9 4-7 16 2 16 7 0 11-7 7-12l-1-1-1-2-2-1h-5m-218 0l1 2 2 1v-1l1-1c1 0 1 0 0 0l-1-1h-3m67 1h2l-1-1-1 1m89 0c-1 0-1 0 0 0 1-1 3 0 3 1l5 1 5-1 2-1c2 0 2 0 2 4l-1 3c-1 0-1 0 0 0h1v-3c0-5 0-5-2-5s-2 0-3 2l-4 1c-4 0-4 0-4-2h-1l-2-1-1 1m67 0c8 3 6 14-1 15-6 1-10-4-9-9 0-5 6-8 10-6m-24 1l-1 1h1v-1m42 1l-1 4v-2c0-3 0-3 6-3 7 0 6 0 6 3l1 2-1-4v-1h-11v1m-220 0v3l1 1h3v-4h-4m177 1a38 38 0 0 1-1 3l1-2v-1m-209 1l-1 1v1-2h1c1 0 2 0 1 2 0 1 0 2 1 1l-1-3h-1m254 0l-1 2h4c4 0 4 0 4-2v0h-7M93 84v2-2h1l1 1c0 7 6 12 13 12 5-1 8-2 10-6 1-1 1-1 0 0-2 4-5 5-10 5h-4l-2-1c-3-1-6-5-6-10v-1h-2-1m221 2v1h3c2 0 2 0 2 6v6-11l-1-1-4-1M54 87v4l3 2h13c2-1 3-2 3-5v-1l-9-1-10 1m39 0s0 1 0 0m-20 1c0 5-1 5-10 5h-6l-1-1-2-4v-1h19v1m47-1c-1 1 0 1 0 0m167 0l1 1v-1h-1m4 0v1a427 427 0 0 1 0-1m22 1v11-6a57 57 0 0 1 0-5m-191 1c-1 4-5 8-9 10l-1 1-2 1h-1c1 1 3 0 3-1l2-1c4-2 9-8 8-11v1m203-1l1 1c0 1 0 1 0 0v-1h-1m64 1h1-1M94 90c1 3 6 8 9 9l1 1c1 1 2 2 3 1h0l-3-1-1-1c-4-1-7-4-8-8l-1-1m59 0l1 4 3-1v-3h-4m210 0l-3 5c-4 4-10 4-14 1l-1-1-1 2-2 1 1 1-2 2-11 10-3-3v-1l1 2a84 84 0 0 1 2 2h1l2-2 4-3 6-6v-1l1-2 1-1h1c4 3 10 3 14-1 2-1 3-4 3-5m-37 2v0m63 0h1-1m2 2h0m-252 0l-2 2h1c1-3 5-3 7 0 1 2 0 4-2 5-3 2-6 0-6-3v-1c-1 1 0 3 2 4 4 3 9-3 5-6-1-1-4-2-5-1m250 1h1-1m-250 1v1l1-1h-1m15 0v1l-1 3h2c3 0 3 0 3-2v-2h-4m237 1h0m-165 0l1 1 3 1v-1h0l-3-1h-1m-9 1h1-1m24 0l2 1h1l1-1c1 0 1 0 0 0h-4m147 0h2-2m-249 1h1v1-1h-1c0-1 0 0 0 0m180 0l1 1h-8 1v-1l-1 1h7c1 1 2 0 1-1h-1m-266 1l-1 1 1-1h29v4l1 5h1l-3 1h-4 7v-1l-1-1h-1v-8l-1-1H67l-14 1m337 0h1c2 0 2 0 0-1l-1 1m-2 1h0m3 1h0m-335 1v6l1 1h-6v-1h-1l4 1h4l-2-1v-3-3h22l1 3v2h-1l-1 2 1-1h1v-3c0-4 1-4-12-4H56v1m-26 1l4 4h3l1-1 1-2v-1h-9m359 0h1-1m2 1h1-1m-189 1v0m22 0v0h4-4m4 0h1-1m3 0v21h-1l-1 1v2h-1c-2 0-2 0-2-2l-1-1h-1c0-1 0-1 0 0h1l1 1c0 2 0 2 2 2l1-2v-1h1c1 0 1 1 1-10v-11c-1 0 0 0 0 0m27 2l-1 1-1 2-1 2v2l1 2 1 2v-1c-2-2-2-3-1-3v-1-1h-1 1l1 1 1-1 2-2c1 0 1-1-1-3h-1m-3 2v-1 1m-75 1v1l1 5v-1l-1-4v-1h8l-1 1-1 4 1 4h1s1 0 0 0v-1h0l1-1v-1l2-2-1-2-2-2h-8m74 0v1l1-1h-1m-56 0h-3v1h2l2-1h-1m25 0h-1v1-1h1m-70 1c-20 2-28 26-14 39a27 27 0 0 0 5 4l1 1c0-1 0-1 0 0h2l1 1s1 0 0 0l2 1h4v1l1-1h1v1h1v-1h5v-1h3l1-1 1 1-1-1 2-1 1-1 1-1h1l1-1 1-1v-1l1-1 1-1 1-1h-1l1-1c0-1 0-1 0 0h0l1-1v-1l1-1v-1-1h-1 1v-1-1l1-1h-1v-1h1-1l1-1-1-3v-1-2-1-1l-3-5c-6-7-9-8-13-10l-9-1M7 112h7a29 29 0 0 1 7 1l-7-1H7m151 0c20 3 26 30 9 41-3 2-11 5-13 4l-2-1a21 21 0 0 1-4-1h-3l-1-1-6-5a22 22 0 0 1 10-35 26 26 0 0 1 7-2h3m65 1h0m-198 0l1 1v-1h-1m-4 0l-7 1H7h6a171 171 0 0 1 8 0v-1m249 1c0 2-2 2-3 2v-1 1l-1 2c-1 2-1 2 1 5v3l-1-2-2-2 1 1 1 2 1 2-3-6h-6v-1h5l-3-1h-2v2l-1 3-2 2 1-2-1 1h1v-1-1c1 0 1 0 0 0v1l1-2-3 5 3 5v-1a37 37 0 0 1-2-3v-1h1l1-2a20 20 0 0 0 1-2l1-1 2-1h2a18 18 0 0 0 5 7l-2 3c-1 0-1 0 0 0 1 1 0 4-1 4s-1 0 0 0c1 1 3-3 1-4l1-1v-1-2l1-1v-2l-2-3v-1l1-2h1v-1h1l2-1v-2l-1-1v1m63 0h0s-1 0 0 0m18 0h0s-1 0 0 0m-104 0v1l-3 5v-1-1h1l1-3-1 2-2 2v2h-2-4l-2 1 2 2h2l2-1 1-1 2 2 1 1-2-2a114 114 0 0 1 0-2l2 2c1 2 1 3 2 2h6c0 1 0 1 0 0h-7l-2-4h1v-1c0 1 0 1 0 0v-1l1-2h1l1-2h4l1 1 2 1v1l-1-2h-1l-1-1v-1h-5m-226 1c-1 0-1 0 0 0m-14 0c-1 0-1 1 0 0l2 2v1-1l-2-2m16 0v0c-1 0-1 0 0 0m130 1h-1c-3 0-9 3-12 6a445 445 0 0 1-3 7c3-8 11-14 18-13h1-2-1m5 0h0m-4 1v2h1s0-1 0 0l-1-1 1-1c0 1 0 1 0 0h-1M5 117v1c0 1 0 0 0 0v-1m155 0h1-1m105 0a31 31 0 0 1 0 2l1-2h-1m-103 0v1l2 1h1l-4-2h1m81 1v0c1-1 1-1 0 0m-95 0v0m-131 1l-3 1-1 1 5-2h-1m186 0s0 1 0 0M6 119l2 1v-1H6c-1 0-1 0 0 0m335 1h1c1 0 1 0 0 0h-1l-1-1 1 1m-119-1c-1 1 0 2 1 2l1 3v2-5h-2v-1-1m15 1h4-2l-2-1v1m-218 0l-1 1c-1 0-1 0 0 0h1l1-1h-1m205 0h0c-1 0-1 0 0 0m-41 0c1 0 0 0 0 0s-1 0 0 0m-15 2l1 1-1-2h-1l1 1m22 0h1v-1l-1 1M8 123l-1 1h1l1-1 1-1-2 1m134-1l1 1v-1h-1m25 1h-1 1c0-1 0-1 0 0m-154 0l-4 2-1-1v1l1 1h5l5-1H9l4-2h0m166 0h0m9 0h1c1 0 1 0 0 0h-1m9 0l2 1 1-1h-3m121 0v2h1l-1-1v-1m-133 1h0s-1 0 0 0m96 0l1 2v2h-4 4v-2l-1-2m-27 1v-1 1m109 0v0m-163 3v2a65 65 0 0 0 0-2m78-2v-1 1m105 0v2h-9v1h4l5-1v-2c0-1 0-1 0 0m-136 0h3-3m118 0h0m-167 1l1 2v-1-1l-1-1v1m71 0v1l-1 1 1-1v-2 1M9 127h10H9m243 0h-5l-1 1-1 1-1 2c1 1 0 4-1 4v1h1v-1l1-1v-2-2l2-2h3l2-1m-114 0l1 1-1-1m180 1l-1 1h-1l2-2v1M4 127v1l1-1H4m241 1l-1 1 1-2v1m9 0l2 4-2-3v-1c0-1 0-1 0 0m-83 0c-1 0-1 0 0 0 0-1 0-1 0 0m26 0v0M6 128v0H5h1m164 0h0M4 129c0-1 0-1 0 0m124 4v2l1-1v-1l1-2v-1l-2-2v5m-15-3v2h2c3 0 3-3 0-3h-2v1m10 0v2h2c2 0 2-1 2-2l-3-1h-1v1m57 5v6l1 1h1l-1-1h-1v-12 6m189-6h-2l2 2 2 1v-1-1l-2-1m-125 1h-1 1c0-1 0-1 0 0m24-1c0 1 0 1 0 0m-22 1l-1 1 1-1c0-1 0-1 0 0m-48-1v1h1l-1-1m-173 1c1 2 0 3-1 4 1 0 2-2 1-4h-1 1m242 0v0m-246 0l1 1v-1h-1m115 1v2-1-1m26 0c0 1 0 1 0 0 1 0 1 0 0 0m-141 1l1 2v-1l-1-1v-1 1m156 2v-2 2m82-2h1-1m-106 1v0c1 0 1 0 0 0v0h2-2m-17 2v-1 1m64-2h-1 1m62 0h-2l-3 1-3 5c1 2 0 2-3 2s-3 0-3 2v3l1-1-1-1c-1-1 0-3 1-3h3a447 447 0 0 1 36 3l-1 1-1 6-1 1 1 1v2l-1-1-2-1h-10c-2 0-3-2-3-4l-1-2 1 2 2 4 1 1h11l1 1h2v-2l-1-1v-1l2-6v-1-2l-18-1c-14 0-16 0-15-1v-1l1-3 1-2h3l3-1h-1m52 0l-2 2c2-3 5-2 6 2l1 1h2c1-1 2-1 3 1 1 1 1 3-1 5l-1 1v-1c2-2 2-4 0-4l-1-1h-1l-1 1v8l1 2c3 0 4-1 3-4l-1-1 2 3c0 2-1 3-4 3h-2v1l-1 1c0 3-4 1-5-2l-1-1v-1 1c1 2 3 4 4 3l1-1 1-1-3-2-2-1-2-3-3-1c-1 3-1 5 1 5v1c-3-1-4-3-1-6 1-1 1-1-1-2v-3c0-2 4-3 5-2h0c-1-1-4 1-3 2v3l2-1h1l2-1 3-1c2-1 2-1 1-2-1-3-4-4-5-1 0 1 0 1 0 0 0 0 0-1 0 0l-1 1c-3-1-5 0-5 2h-1l1 3 1 2c-4 3-2 6 2 6h2v1l4 4c2 0 3-1 3-2l1-2c4 1 6-1 4-5v-1l1-1c1-3 1-4-1-6l-2-1h-2c-1-3-4-5-5-4m-59 1v1l1-2-1 1m105 0l1-1-1 1M6 134v0-1 1m107 1v2h2c2 0 3-1 2-2l-2-1h-2v1m10 0v2h1l3-1c0-1-1-2-3-2h-1v1m14-1c-1 1 0 1 1 1l1-1h-2m16 0l2 2-2-1v-1m16 0h2-2m-30 1h-2l1-1 1 1m177 0l1 3h-3c-2-1-2-1-1-2 1-2 2-2 3-1M4 135v0m148 1v-1 1m17-1h2-2m86 0v1l-1 1-2 1v-1l1 1h1v-2l1-1m-2 1v0m-65 3v2h-2v3h-2v12h-1v-6l1-6h-1v13a122 122 0 0 1 5 3v-1-1l1-2v-1-1-1-1-1-2l1-1v-1l1-2-1-4v-1l-1-2-1-2v3M8 137v1c0 1 0 1 0 0l1 1 6 3-2-1-4-3h5-6v-1h12l-6-1-6 1m128 0v0-1 1m190 0l1 1h1-1l-1-1m-173 3a26 26 0 0 0-2 3v1c-1 1-1 1-1-1v-1 2l-1 2 3-4a190 190 0 0 1 1-2m71-2h0m87 0l-1 1-1 2h-1v-2c-1-1 0-1 2-1h1m3 0v1h-3l3-1m42 1h-1 1a25 25 0 0 1 1-1l-1 1m-121-1c0 2 0 2-4 2h-4v11l6 1h5v4h-13a126 126 0 0 1-13 0h26v-4l-5-1h-6v-11h8v-2m-122 2v2h1c3 0 4-2 3-3h-4v1m10-1v3h1c2 0 3-1 3-2l-4-1m28 0v0M7 139l-1 1 4 2H9l-2-2v-1c1 0 0 0 0 0m129 1l1 1 1 2a21 21 0 0 0 10 10l6 1 2-1h-1c-8 1-15-5-18-13h-1m88 0v-1 1m93-1l-2 1-6 3c0 1 7 7 9 7l1-8-2-3m1 1h-1v-1l1 1m3 0h1c2 0 2 1 1 3h-2c-2-2-2-4-1-4l1 1m-4 0l1 4-1 4h-3l-2-2-1-1v-3h1c2-2 4-2 5-2m47 0l1 1h1c1 0 1 0 0 0h-1l-1-1c-1 0 0 0 0 0m-226 1h0m13 0v0m163 0h1-1m37 1l-1 1 1-1 2-1-2 1m14 1l1 4-1 1h-1l-1 1v3c0 1 4 3 5 2h1l1-2v-1-1-2 1 2 1l-2 1v1h-1c-1 0-1 0 0 0l-2-1h-1c-1-1 0-1 1-1h2l-2-1h-1l1-1h2l-2-1h-2 2l1-1v-1-1-1-1l-1-2h0l-1-1 1 2m-194-1h-1 1m126 1l1 1v2h-4v-1l1-2-1 2 2 1h2v-2l-1-2v1m-278 1h2l-2-1h-1l1 1m291-1v1l-1-1h1m11 0v2c-1 1-1 1-1-1s0-2 1-1m-100 0h0m38 0h-4c-5 0-6 1-5 3v1-1-1a47 47 0 0 1 8 1s1 0 0 0l-5 3-2 2c-1-1-1-1 0 0l7 1c6 0 6 0 7-4 0-2 0-1-3-1h-5l3-1h-1l-2-2v-1l1 1 5 1c2 0 2-1 1-2h-5m13 0l-1 1v4-1h4c3 0 5 1 6 3l2 2h-5c-6 0-6 0-7-2 0-1 0-1 0 0l1 1 1 1h10l-4-4v-1l4 3 1 1 2-5v-1h-8l1-1-4-1h-3m5 0l-2 1a358 358 0 0 0 2-1m-263 1h1l2 1 1 1-3-2h-1m250 0h-1l-1-1 2 1m2-1l1 2 2-1-3-1m83 2l-2 1 2-1 1-2-1 2m-236 0v2l2-1c3 0 3-3 0-3h-2v2m10-1v3h1l3-1-1-2h-3m95 0v0c0-1 0-1 0 0m162 4v-1-3 4m-111-4h-3 3M6 145H5h2l1-1-2 1m303 0l1 2v1l1 1h-1c-4 0-5-2-2-4h1m-92 1v1l1-1h-1m69 0l-1 5-2-2-5-3h-3 11m36 0c1 3 1 4-2 4l-1-1v-1l1-1 2-2v1M5 146v0m137 0v1l1-1h-1m24 0v1h0v-1m83 1v-1 1m18 0l-1 1c0 3-1 5-3 5h-11l-1 1-2 1 1-2v-2h-1 1v1l-1 1v2l1 1 1-1v-1h12l1-1c1-1 2-2 2-5v-1h2c2 0 2 0 1-1l-2 1M9 147l-2 2c1 1 2-1 2-2v-1 1m255 2c0 3 0 3-6 3s-6 0-4-2l4-2 3-1h3v2m49 0l-2-1h1l1 1m-290-1v1s1 0 0 0h1l-1-1m227 0v0m68 0v1h-1v-1h1m-101 1c0-1 0-1 0 0m-104 1v1h2l2-1c0-1 0-2-2-2h-2v2m10 0v1h1l3-1c0-1-1-2-3-2h-1v2m126-1v0c0-1 0-1 0 0m-77 0c0 1 0 1 0 0h0m173 0l-1 1 1-1m-324 0v1h1l-1-1h-1 1m127 0v0m6 1v1a40 40 0 0 0 0-1m162 0l1 1-1 1h-1c-1 1-2 1-3-1v-1h4m-169 0v0m69 1h-2l-2 1h2c2 0 2 0 3-2l-1 1m-53 0s0 1 0 0h0M7 151h7a29 29 0 0 1 7 0h-7a104 104 0 0 1-7 0m155 1h-1 1v-1 1m-148 0H7l7 1 7-1h-7m145 1c-1 0-1 0 0 0h0m39 1c-1 1 0 4 1 4l1-3-2-1m2 2l-1 1-1-2h2v1m-89-1h4c1 0 1 0 0 0h-4m40 2h-1 1m8 0h-1 1m-3 1h-1l1-1v1" fill="#008fa0"/><path d="M247 63c-6 2-6 9-1 11 6 3 12-5 7-10-2-1-4-2-6-1m2 2l1 1v2h3v2h-3v3h-2v-1l-1-2h-2v-2h2v-2c1-1 1-2 2-1M82 67v26l1-13c0-13 0-14-1-13m81 1c-5 1-5 8-1 10 5 4 11-4 7-9-2-1-4-2-6-1m110 13v13l1 2 3 4 2 3v21h2v-22l3-4 3-5v-4-20h-2v19h-10V69h-2v12M165 69l1 2v1h2v2h-1l-1 2-1 1-1-1-2-2h-1c-1-2 0-2 1-2l2-1 1-2m201 1v4c2 1 5-1 3-3 0-1-2-2-3-1M62 74c-3 0-5 5-3 8s5 4 8 1c4-4 1-11-5-9m2 3l1 1h1c2 0 2 2 0 2s-2 0-2 2v1l-2-1v-2h-1l-1-1 1-1h1v-1l1-2h1v2m150 3h-3v6c0 7 0 8 2 9 2 3 6 4 9 1 1-1 2-1 1-2-3-3-3-9 1-12l1-2h-11m-22 0v27c1 5 8 5 9 0l1-26-10-1m9 1h-4 4m-1 1h-1 1s1 0 0 0m-1 2h-2s0-1 0 0h2m2 1h-2 2M9 86L2 97c-1 3 0 6 2 7l24-1 3-2-4-9-4-7H9v1m192 1h-4l2-1 2 1m88 13v12l3 5 3 4v22h2v-23l2-3 3-4 1-1V87h-2v20h-10V87h-2v13m-88-12h-2 2m0 2h-4 4m0 1h-2 2m84 0l-2 4-2 3c-1 2-1 2-4-3-3-4-3-4 3-4h5m-84 1l-2 1-2-1h4M29 93l1 3c2 3 2 5 1 6s1 1 4 1h2l2-1c3-1 6-5 6-8v-1h-8a150 150 0 0 1-8 0m171 1h-1 1c1 0 1 0 0 0m1 1h-4 4m0 2h-2l1-1 1 1m0 1h-4 4m0 2h-2l1-1 1 1m0 1h-4 4m113 1v11l2 1c2 0 2 0 2-7 0-6 1-6-2-6l-2 1m50 13v8l1 1 1 1 1 2v1h3v-3h4v1c0 2 0 2 4 2l5-1v-1-1h4l6-2v-1h-4l3-1h1l-2-1h-1 2l1-1h-2 2v-1l-1-1h-1 1l1-1h-5 5v-3h-3c-2 0-2-1 0-1h3l-2-1h-1 2l1-1h-1a93 93 0 0 0-1 0h2v-1l-1-1h-1 1l1-1c0-1 1-1-15-1h-14v9m-63-6l-4 7c-1 2-1 2-4-2-3-5-3-5 3-5h5M4 111l-2 2c0 2 3 3 4 2 2-2 0-5-2-4m249 1c-1 0-2 2-1 3h2c2 0 1-3-1-3m-8 1l1 2 1-2h-2m85 1c-6 2-9 6-9 11v3h6c6 0 5 0 6-3l1-2 1 5c1 4 1 4 2-2 2-7 2-8 5 11l1 6v-1l4-14v-1h8c9 0 8 1 8-2 0-4-2-8-7-10s-9-1-13 4c-1 2-1 2-2 0-3-4-7-6-11-5m-310 2c-1 0-2 2-1 3 1 2 4 1 4-2 0-1-2-2-3-1m215 2c-2 1-2 3 0 4s3-2 1-3l-1-1m-170 1a14 14 0 1 0 12 24c10-9 2-26-12-24m199 0c-1 1 0 3 1 2v-2h-1m-66 2v1h2c0-1-1-2-2-1m118 0l-2 5c-1 3 3 4 4 1 1-1 1-1-1-4l-1-2m-247 3l1 3c0 4 0 4 3 4 4 0 4 0 4 2 0 3 0 3-4 3-3 0-3-1-3 3s0 4-3 4c-2 0-2 0-2-4v-3h-4c-4 0-3 0-3-3v-2h3c4 0 4 0 4-4s0-3 2-3h2m-49 0c-2 1-2 2-1 3 1 2 3 1 4 0 0-2-1-4-3-3m225 2l1 2 1-2h-2m92 4l-1 5-1-2c-1-6-1-7-2-5l-6 1h-5c0 3 4 8 9 12s7 6 10 11c1 2 1 2 2 0l10-11c5-4 8-8 9-11 1-2 1-2-7-1h-7l-1 2c-5 20-4 19-6 9a1269 1269 0 0 0-4-10m-154-2h-3v13h8v-12l-1-1h-1-3m-73 1c-2 1-1 3 2 3h1v-3h-3m10 0l-1 2 3 1h1v-3h-3M3 130c-2 2 0 5 2 4s2-4 0-4H3m253 2v2c1 0 3-1 2-2h-2m-145 2c-3 0-2 3 1 3h1v-2-1h-2m9 0v2l3 1v-3h-2-1m66 0h-2 2m-166 2v3c1 1 3 1 4-1s-2-4-4-2m167-1l-1 1-1-1h2m0 1l-2 1h-1l3-1m0 2h-1-1 2m-77 1c-1 1 0 3 2 3h1v-2c1-2 0-2-1-2l-2 1m10 0c-2 0-1 3 1 3h2v-4h-1l-2 1m67 0h-3 3m180 2c1 0 1 0 0 0m-54 1c-2 1-1 4 2 4 2 0 3-1 2-3 0-1-2-2-4-1m55 0v1l1-1h-1m-1 2v2h1v-1h-1v-2 1m-257 0c-1 1 0 3 2 2h1v-1c1-2 0-2-1-2l-2 1m10 0c-2 1-1 3 1 3h2v-4h-1l-2 1m248 0v0m-349 1c-1 1 0 3 1 4 2 0 3-1 3-2 0-2-2-3-4-2m349 2v0c0-1 0 0 0 0m-258 2c-1 1 0 2 2 2h1v-3h-1l-2 1m9 0c-1 1 0 3 2 2h2v-3h-2l-2 1M4 150c-2 1-2 4 1 4l2-1c0-2-2-4-3-3" fill="#ee5438"/><path d="M0 103v102h400V0H0v103m20-46v22l1 1a190 190 0 0 1 8 14c-1-1-1-1 2-1h3-2l-1-1-1-1-1-2v-1l-1-1v-1l2-2 2-1v-7-7c-1-1-1-1 3-1h3v15h1c2 1 6 4 6 6v1c2 4 0 9-4 12-2 1-2 1 0 0l3-5v1l-5 4-2 1h-2l-4-1-1 1-2 1 1-1 1-1v1l-14 1H3c-2-1-3-3-2-5l4-8a824 824 0 0 0 6-10l1-2V69 58v-1h8m50 1v5 2c2 0 3 3 3 5v2H54v-2c0-3 1-5 3-5v-8h13v1m96 0l1 1 8 1h7v45a424 424 0 0 1-27 1v2l-2 1-4-2-1-2V60h14v2h-1l-2 1h-2l-1 1h-1-4v37-37h4v1c0 1-1 1 10 1 10 0 10 0 9-1v-1h5v37h-9a5952 5952 0 0 1-5 0h14V64h-5c0 2 1 2-9 2a101 101 0 0 1-10-1h9l1-1-1-2-1-1v-1h2v-1-1h1m-33 1h8v12l-1 6c-1 1-1 1-1-2-1-6-3-8-6-6l-2 8c5 0 8 1 10 5l1 1v11h-1l-1-1v-4l-1-8c-3-3-9-3-11 1l-1 18c0 18 0 17-2 20-2 2-4 3-7 3-5 0-8-1-10-5l-1-1v-16h2v15l1 2c2 5 10 5 14 1l1-19 1-18 3-4v-2-5-12h4M17 59h1-1m66 0l2 1v27l-1 1v7h-1c-1 0-2 0-2-3v-4l-1-14V60l3-1m21 1c1 1 1 2-1 3-1 0-3-1-2-2l3-1m10 1v1c-1 2-4 0-3-2l3 1m88-1v11l-1 9-1-1h-1 1l1-1a80 80 0 0 0-3-1v-1h1c-1 1-1 1 1 1 1 0 2 0 1-1 1-1 0-1-2-1-3 0-3 0-2 1v2 2h-5v-3-5 3l1 4v-1-2-2-1h1l-1-1-1-1v-4l-1-4v-2l11-1m121 1l1 4a112 112 0 0 0 1 10 330 330 0 0 1 3 16 78 78 0 0 0 2-8 403 403 0 0 0 4-13l8-1h8v-1c2-3 6 0 5 3-1 2-4 2-5 0h-14l-1 2a838 838 0 0 1-9 22 47 47 0 0 0 0-5 84 84 0 0 0-2-9 400 400 0 0 0-3-13 613 613 0 0 1-5 11 399 399 0 0 0-2-9c0 2 0 2-8 2h-9c-3 0-4-1-3-2l9-1h10c2-7 2-7 3-6l1 5a65 65 0 0 0 1 5v-1a94 94 0 0 1 4-11h1M16 61l1 1v1l-1 1h1v2c-1 0-1 0 0 0v2h-1l1 1v1 2 2c-2 0-1 1 1 1h1V61h-3m259 0l1 1 4 1 5-1 2-1c2 0 2 0 2 5v3h-2v6l1 5 2-1 1 1h1c0 2 0 2 4 2l4-1c1-2 1-2 3-2s2 0 2 5v3h-2v25l-3 5-3 4v10l1 11v4h-2l-2-1 1-2v-22l-3-4-3-5v-12c0-13 0-12-1-12h-1v5l-3 5-3 4v11l1 11v4h-2c-2 0-2 0-2-2l1-2v-21l-2-3-3-4-1-2V69h-2v-4l1-3 3-1m-56 1c2 0 4 2 5 4v7l1 6h-7 3c4 0 5 1 4 2h1l3-1v17h-1l-5-2v-1c1 1 0 1-1 2-3 3-7 2-9 0-2-3-2-2-2-17V66l1-1c1-2 2-3 4-3h3m149 0l3 3v1h3c1-1 1-1 2 1 2 2 2 3 0 5l-1 1 1 1c1 3 0 6-3 5-2 0-3 0-3 2s-2 2-4 1l-1-1-1-2h-1-2l-2-1c-2-2-2-4 0-6h1v-1l-1-1-1-3c1-2 2-2 4-2h2v-1c1-2 3-3 4-2m-267 0l-3 2-2 3-1 10v7h-1v-8c0-10 0-10 4-13l3-1m16 1l4 4 1 1v8l-1 8V70l-1-2-1-1-3-4-2-1h1l2 1m130-1h9v11h11v12l-1 12h-24v-1-1l1-1h-1v-2-1-1l-1-2v-1h1c0-1 0-2-1-1l-1-1 1-1 1-1v-1h-1l-1 1v-1c0-1 0-2 1-1l1-1-1-1h-1v-2h1l1-1h-2v-2h1l1-1-1-1h-1l1-1 1-1-1-1h-1c0-1 0-2 1-1l1-1-1-1h-1v-2h2l-1-1-1-1h7m119 1l-1 1v1l1 1h4c0-2-3-4-4-3M81 63l1 1v1 1c1 0 1 0 0 0v1h-1v12l1 1h-1v3h1l-1 1v2l1 1V77 67l1 13a58 58 0 0 1 0 13v-3l1-3v-1l-1-1h1v-2-2-1-1-2-2-1h-1l1-1v-1-1-1-1-1-1-1-1l-1-1h1v-1h-3m280 3l-1 1 1 2v1l1-1 1-3h-2m3 1v1l3-1-3-1v1m-167-1v1c1 1 5 0 4-1h-4m3 1h-1 1m172 1v1l1 2 1 1h1v-4h-2-1m-173 0l1 1 1-1h-2m2 0h-2 2m166 1l-3 1h-1v3l1 1c3 2 3 3 5 2s2-1 2-4v-3h-4m-170 1h2l2-1-4 1m78 9v9h10v-2a133 133 0 0 0 0-14v-3h-10v10m93-9c2 1 2 4 0 5-2 0-4-2-3-4 0-1 2-2 3-1m-168 0h-1 1M18 70h-1 1s1 0 0 0m181 1l1 1 1-1h-2m163 0v1l1-1h-1m10 1v2h1v-2h-1M35 71v3c1 0 1 0 0 0v2 3c1 0 1 0 0 0v2l1 1h1V71h-2m165 0h-1 1s1 0 0 0M72 79v7H54V72h19l-1 7m125-7c-1 1 0 1 2 1s3 0 2-1h-4m3 1h-1 1m160 0l1 1v3h1l1-1c0-2-2-4-3-3M64 74c7 1 6 10 0 11h-1c1 1 3 0 4-2 4-3 2-9-3-10h-1l1 1m135 0h0m174 0l-1 3-1 1h1c2 0 3-1 3-3 0-1-1-2-2-1m-9 2v1h1v-1l-1-1v1M63 75l1 1v1c0 1 0 2 2 2h1l-1 1-2 1v2c-1 0-1 0 0 0v-1c0-2 0-2 2-2s2-2 0-2h-1l-1-1v-2h-1m307 1l-1 1h1v-1m-15 1c3 0 6 3 7 6l1 4v2c-1 8-10 12-17 7h-1l-1 1-1 2v1l-6 6-4 3-2 2h-1l-1-1-1-1v-3a945 945 0 0 0 7-6l3-3 2-1 1 1 1-1c2-2 2-2 1-3-5-9 3-18 12-16m-155 0h-1 1m166 1c-2 0-2 0-1 1l2 2 2-1v-1l-1-1h-2m-167 0h-2 2m-64 1l1 1c1 0 1 0 0 0l-1 1v1l-2-1-1-2h3m66 1h-2l1-1 1 1m149 0c-7 2-7 12-1 14 7 4 14-5 10-11-2-3-6-4-9-3m-148 1l-1 26c-1 5-8 5-9 0V80l10 1m31 0c3 1 6 6 5 9l-1 2v1l-7 4v-1-15h3m151 1l1 2v2h-3v-1-1c0 1 0 2-2 2h-5c-3 0-3 0-3-2l1-2v-1h11v1m-223-1v1h17l-17-1m-8 3v2h5v-5h-5v3m4-2v4h-4v-4h4m66 0v1-1h0m-100 3c0 6-4 12-9 14l-2 1-4 1h-1c-1 1-2 0-3-1l-1-1c-5-1-10-7-10-13l1-2h2v1c0 5 3 9 6 10l2 1h8c4-2 7-6 8-10l1-2 2 1m38-1c-1 1 0 1 8 1l9-1h-17M16 85h0m147 1l-2 1h8l9-1h-15m154 0l1 1 1 1v5l1 6v1h-1a16 16 0 0 0-7 0l1-1v-5-6c1-2 3-2 4-2m53 1h2l1 1h2v-1h3v2c0 1 1 3 1 1v-1-1h5v-1h-1l5-1c6 0 5-2 5 20v18l-6 1h-4v3l-5 1h-4v-3l-2-1-2 2v1h-3v-1l-1-2-2-2v-1l-1-1v-4l1-8v1-4h14l14 1a115 115 0 0 1 1-1 350 350 0 0 0-23-1v-1-1h1v-1-1l1-1v-4-1-2l-1-1h1l-4-4-1-2 3 1M73 88c0 3-1 4-3 5H57l-3-2v-4l10-1 9 1v1m218 9v10h10V88h-10v9m-130-8h17l-9-1-8 1m60 0s0 1 0 0m167 0c-1 1 0 1 2 1l3-1h-5m-235 0v5h5v-2c0-3 0-3-3-3h-2m239 0h-3 3m-235 1v3l-3 1-1-4h4m233 1h3-3m-227 0h-2l8 1 9-1h-15m112 0l2 4c3 5 3 5 4 3a327 327 0 0 1 4-7h-10M28 93v1l-1-3 1 2m360-1l2 1 3-1h-5m4 0h-3 3M35 93h10v2-1-1H35m126 1h17l-9-1-8 1m229-1l1 1 2-1h-3m2 1h-1 1m-248 1c2 2 1 6-2 7-4 1-7-4-4-7 2-2 4-2 6 0m244 0l3 1 2-1h-5M45 96c-1 1 0 1 0 0v-1 1m347-1h-3 3m-231 1h0m-21 0c-2 2-1 4 2 4 2-1 1-4-1-4h-1m13 0v4l2 1c3 0 3 0 3-3v-2h-5M30 96v1l1 1-1-1v-1m112 1c2 1 1 3-1 3l-2-2c0-2 2-3 3-1m16 1c0 2 0 2-2 2h-3v-4h5v2m232-2l1 1 2-1h-3m2 1h-1 1m-165 0l3 1h0v1l-3-1-1-1h1m161 1v1l5-1h-5M31 98s0 1 0 0v0m214 0c1 0 1 0 0 0l-1 1h-1l-2-1h4m-84 0l8 1 9-1h-17m231 0h-4 4m-361 2v-1 1m359-1l1 1 2-1h-3m-308 1v8h1l1 1v1h-7l1-2h1v-2l-1-3H56v6l2 1h-8l1-1h1v-9h1l14-1h14l1 1m310 0h-1-1 2m-361 0v2l1-2h-1m130 0c0 1-1 1 8 1l9-1h-17m155 1h1l1 6c0 7 0 7-2 7s-2 0-2-7v-6h2m72 0l1 1h1l3 1v-2h-5m4 0h-4 4m0 1h-1 1m-4 2h2l3-1-5 1m-357 0h8v1l-1 2-1 1h-1-2l-4-4h1m361 0h-3 3m-2 1l1 1 2-1h-3m2 0h-1 1m-190 2v-1 1m29-1a204 204 0 0 1-1 21h-1v1l-1 2c-2 0-2 0-2-2l-1-1-1-3-1-3-1-1v-1c3 1 5 0 5-3 0-2-2-4-4-3-1 1-1 1-1-1v-1h2v-2-3h7m26 1v1l-1-1h1m2 1c2 2 2 3 1 3l-2 2-1 1-1-1h-1 1v2 2l1 2c-1 1-1 1-2-1l-2-2-1-1h-4l-1 2h-1l-1 2v1c0 1 0 1 0 0v1h-1l2 4h7v1l-1 1v1h-5l-2 2v4l-1 1v1h-1v-1c2 0 2-3 1-4v-2-5l-2-2-1 1-2 1-1 1-4-4c-1-2 1-4 3-2l2 1h2c0 2 1 2 2 1v-2l1-2 1-3c0-1 1-2 2-1h5l1-1 2-2 1-2 1 1 1-1h1m32 1l2 5c3 4 3 4 4 2l4-7h-10m-233 2l1 2 1 2h7v2c1 2 1 2 1 0v-2h6l2-2c0-2-1-2 11-2h11l1 1 1 1v20l-1 20c-1 2-1 2-17 1H68v-3c0-4 0-3-1 1v3H37l-1-1c-2-1-2 0-2-22l1-20h3l4 2 2-2h1v-1c-1 0-1 0 0 0h13m130 0l2 2 1 2-2 2v1l-1 1h0v1h-7v-4-3l-1-1v-1h8M6 112h15v1l-1 1h-7l-7 1-1 1-1-1-2-2c0-2 3-3 4-1m193-1l-2 1h-1-1v-1h4m-41 1c6 1 10 3 17 11l3 5v5a14 14 0 0 0 1 3l-1 1h1-1v1h1l-1 1v2h-1 1v2l-1 1v1l-1 1h1-1c0-1 0-1 0 0l-1 1h1l-1 1-1 1-1 1v1l-1 1-1 1h-1l-1 1-1 1-2 1 1 1-1-1-1 1h-2-1v1h-2-1-1-1v1h-1v-1h-1l-1 1v-1h-1-3l-2-1c1 0 0 0 0 0l-1-1h-1-1c0-1 0-1 0 0l-1-1-5-4c-13-12-7-34 10-38l9-1m110 0h1v3c-2 1-3 0-3-1l2-2m-246 2h1l1 1h-2v-1l-1-1 1 1m4 0l-1-1h1v1m199-1c3 2 3 6-1 6-1 1-2 0-3-1l-2 1c-7 3-9 11-4 17 2 2 3 2 4 1h3l2 2v-1h11c1 2 1 2-4 2h-4v11h6l5 1v4h-26v-4l2-1h2v-1a100 100 0 0 0 3-7h1l3-1 1-2-1 1c0 2-4 2-6 0l-1-2c-10-6-8-21 4-24h1c1-2 3-2 4-2m43 1v1l1-1h-1m4 1l-1 1-2 1h-1v1h-1l-1 2v1l2 3v2h-1v1l-4-6h-2l-2 1-1 1-1 1v1l-1 2h-1v1l1 2 1 1 1 1h2l2 1 1-1 1-1 2 1c0 2-3 3-3 2h-1-5l-1 2-1 3v1c-1 1 1 1 15 1l18 1v3l-2 6v1l1 1v2h-2l-1-1h-11l-1-1c-1-1-2-2-2-5l-2-1h-2v1c0 3-1 4-2 5l-1 1h-12v1l-1 1-1-1v-2l1-1v-1l-2-6v-1-1c0-2 0-2 3-2l4-1-2-2h-1l1-1a115 115 0 0 0 3-5l-1-2-2-2 1-1v-1l-1-1 2-2 1-2 1 1-1 2-1 1 1-1 2-3v-2h3c3 1 3 1 4-2 2-2 2-2 3-1l2-2v-1l1 1 1 1m44 1v2h-1v-4c1-1 1 0 1 2m20-1l5 4c1 2 1 2 2 0 4-5 8-6 13-4s7 7 7 11c0 2 0 1-8 1h-8v1a327 327 0 0 0-5 12v-2 2a36 36 0 0 1 0 4h1v-1a150 150 0 0 1 3-7l1-5 1-2h7c8 0 8-1 7 2s-4 6-9 10c-5 5-8 7-11 12l-1-1-9-10c-6-5-10-10-10-13l-1-1 1-8c3-5 10-7 14-5m-314 0h1v2l-2 3-2 1-1 1a25 25 0 0 0-9 3h10v-1 1l-1-1-2-1h-1l1-1h2l2 1 1 1 2 3 1 2-1 1h-1v-2l1-1-1 1h-3l-1-1H9v-1l-1-2H7l4-3a33 33 0 0 0 4-1l4-3 1-2h2m-13 1c1 1 0 3-1 4-2 1-4-2-3-4h4m143 0c-12 2-19 14-15 25 5 14 23 16 32 5l3-6v2h-3 2l-2 4-1 1h-1l-1-1v1l1 1-1 1-4 2h-1c0 1-2 2-5 2h-1v-2l-1-2v4h-1l-5-1-1-1 1-2-1 2-4-2-1-1 1-1v-1h-1l-1 1-2-6v-1h-1v-1l1-4v-1h-1v-1l5-10a16 16 0 0 1 6-4l4-1h1v1h1v-1h2l4 1h3l3 2-1 1v1l1-1v1h-1l1-1 4 4v1s-2 1-1 2l1-1 2 4v2h-4l2 1h2v1l-1 3v1c1 1 1-3 1-6 0-6-3-12-9-15l-2-1v2-2l-1-1-7-1h-2m3 2c0 1 0 2-1 1v-2c1-1 1 0 1 1m43-1v2l-2-1 2-1m-180 0c1 1 0 1-4 1H9l9-1m181 1v1l-1-1h1m-51 1v-1 1m-138 0l1 1h2l-2 1-3-1 1-1h1m57 0h2c17 2 16 27-1 28l-1 1h2c9-2 15-11 12-20h-1v-1l-6-7h-1c-2-1-5-2-6-1m136 0c0 1 0 0 0 0m40 1v1l-1-1h1m14 0v1l-1-1h1m-58 1c1 1 1 2-1 2-1 0-1 0 0 0v-2h1m118 2c2 3 2 4 1 5-2 2-5 0-5-2l3-5 1 2m-130-2h3l-3 1v-1 1h-3c-1 1 0 1 2 1h1l1 3-1 2-1-1-1 1h-1 3l1 1v3l1 6 1 2v1l1 4-1 2v1l-1 1v7l-1 2v2l-3-2-2-1v-12c-1-1-1-1 1-1h2v-3h-4v1l-1 1v-1l-1-1v-6a94 94 0 0 1 0-10l-1-3-1-1h9m206 1l-1 2h-1l-4 1h-4 8l1-1 1-3v1m-202 0h-1l1-1v1m-7 0h3l-2-1-1 1m-41 0v1l-1-1h1m38 0h1-1m-1 1h-1 1m10 0h-2 2m10 5v5h-3v-9l2-1h1v5m-133-4h2l1 3c0 4-1 4 3 4h4v2l-1 2h-2l-4 1v3l-1 3h-1v1c2 0 2 0 2-4s0-3 3-3c4 0 4 0 4-3 0-2 0-2-4-2-3 0-3 0-3-4 0-3 0-3-2-3h-1m117 0l1 1 1 1h1v-1-1h-3m12 1l-1 1 1-2v1M8 125v3c-2 1-4-1-3-3h3m189 0l-1 2 1-3v1m-11-1h-1c-1 0 0 0 0 0h1m68 2l-1 1v-1h1m15 0l-1 1-1-1h2m97 0h-1 1m-182 0l2 1h1l-3-1m86 1l-1 1-1 1 1-1v-1-1l1 1m-153 1l1 2h1c1-1 1-2 4-1l4 1c1 1 0 2-4 2l-4-1c0-1 0-1 0 0h-1v11c0 13 0 12-1 12v-1l-1-1c2-1 2-3 0-4l-1-1h1c2 0 2-3 0-4l1-1v-1c1-1 0-3-1-3l1-1c1-2 0-4-1-4s-1 0 0 0v-1c2 0 2-3 0-4l-2-1 3 1m22-1v1l-1-1h1M5 127l1 1v3l1 1h7-7l-1 1v2H4l-1-1v-4l1-1 1-2m263 1l-1 1v1l-1 1c2 1 0 5-1 4-1 0-1 0 0 0l1-4v-2l1-2 1 1m-97 0h-1 1m191 0h-7 7m-160 2v-2 2m-73-1l1 2-1 2v1l-1 1v-2-5l1 1m67 3v-2l1 1a65 65 0 0 0 0 2l1 1h1v4a119 119 0 0 1-1 15v-2l-1-2a322 322 0 0 0-2-10v-9c0-3 1-2 1 2m-80-3c2 0 2 2 0 2h-6v-2h6m255 1v2l-2-1-2-2h2l2 1m-103-1c0 1 0 1 0 0m111 6v8c-1-2-1 1-1 6v2c1 1 1 1 1-1v-2 7c-2 0-2 0-2-7a30663 30663 0 0 1 0-16v-3h2v6m-133-5l-1 1 1-2v1m-221 0c1 2 0 4-1 4-2 0-4-1-3-3 1-1 3-2 4-1m242 1v-1 1m-104-1l-2 1a1508 1508 0 0 0-9 4 447 447 0 0 1-2 10 760 760 0 0 1 9-12 103 103 0 0 1 4-3m0 1h-1c-6 3-6 3-10 11l-3 4 1-4 2-8 3-2h4l4-1m80 0l1 3h-3v-3h2m-66 3v-2 2m-56-2l1 1h-2v-1h1m-5 1h1v-1l-1 1m37 0l1 3 2-2-3-1m163 0l3 4h2l2 1c2 2 2 3 1 6l-1 1v1c2 4 0 6-4 5l-1 2c0 1-1 2-3 2l-4-4v-1h-2c-4 0-6-3-2-6l-1-2-1-3h1c0-2 2-3 5-2l1-1c1-3 3-4 4-3m-161 0v2l-1-1 1-1m214 1l3 3 1 1v3l-1 1v1l-2 4-1 1h-1v-1-2a848 848 0 0 0 1-6h-1c-1 0-1 0 0 0v1h-1 1l1-1s1 0 0 0v1h-1l-1 1h-1v-1h-1c-2-1-3 0-2 1l1 1v1l1 1v4h-1l-1-1-1-3c-4-6 1-13 7-10m-253 0l1 2h-7c-1-1-1-2 1-2h5m10 0v3l-6-1v-2h6m241 0h2-2m-228 0l1 1h-3c-1-1 0-1 1-1h1m33 1h-1l-2-1 3 1m-149-1l1 1h-1-1v-1h1m291 1l-2 2 4 1c2 0 2 0 1-1-1-2-2-3-3-2m-291 1c2 2-1 5-3 3v-1H9l3 2a146 146 0 0 0 9 4l2 3v2l-1 1h-1l-1-1-1-2H9l1-1h4a49 49 0 0 1 5 0l-4-2h-1l-3-1-3-2c-2-1-2-1-1-2l1-2 6-1 5 1 1-1h3m179 2v-2-1 3M8 136c1 1-1 4-3 3l-1-2c0-1 2-2 4-1m362 0v1l1 1v-1-1l1 2v2h-1l1 1v1h-2 1v-2l1-1h-1v1l-1 1v1l-1 1v2h-1v1l1 1c0 1 0 1 0 0l1-1 1-2h-2v1c0-1 0-2 1-1v-1h1l1-1v-6h-1-1m-3 0v-1 1m-22 1a418 418 0 0 0-3 9v-1 1l1 1a88 88 0 0 0 2-10m-218 1h1v7c0 8 0 8-2 9l-3-1v-1h2l2-2c0-2 0-2-3-2s-3-1 0-1l3-1c1-2 0-3-2-3-3 0-3-1 0-1s3-4 0-4a683 683 0 0 0 2 0m181 0v3h1l1-2 1-1h-3m60 0h0m-56 0l-1 2 2-1h1v-1h-2m-195 1v2h-7v-2l1-1h2l4 1m6-1l1 1c2-1 4 0 3 2h-7v-2l3-1m-103 1h1v1l-5 2-1-1h2l2-2h1m234 0v1l-2-1h2m-52 1v1l-1 3v-3-2l1 1m115-1v1h1l-1-1m2 1l3 4 1-3-1-1h-3m-4 0l-3 2h-1v3l1 1 2 2h3l1-4c0-3-1-5-3-4m55 0l-1 1-1 6v1h1a242 242 0 0 0 1 2v2l-1 2h-1c-1 1-5-1-5-2v-1-1-1l1-1h1l1-1-2-6c-1-1 0-1 1-1l1 1h2l1-1h1m-231 1h-1 1c1 0 1 0 0 0m32 1h-1v-1l1 1m145 0c2 0 2 3 0 4-1 1-4 0-4-2s2-3 4-2m49 0l1 2v-2h-1m2 0v3l1-1a354 354 0 0 1-1-2m-1 1h-1v-1l1 1m2-1v1l-1 1v-1l1-1m3 1h-1 1m-62 0l1 1v-1h-1m11 1c0 2 0 2 1 1v-2c-1-1-1-1-1 1m-308-1l1 1h-1l-2 1-1 1v-3h3m260 0l-1 1h1a358 358 0 0 1 0-1m-155 1l-1 2h-6v-2l1-1h2l4 1m6-1l1 1c3 0 3 0 3 2-1 1-8 1-8-1l4-2m138 0l3 1-2-1h-1m119 4v-3 3m-114-3h3-3M8 145c2 1 2 3 0 4l-3-1c-1-2 1-4 3-3m300 0c-3 2-2 4 2 4h1l-1-1v-1l-2-3v1m35 0v0m-93 0l1 6 2-2 5-3c1 0 0 0 0 0h-1l-3-1a40 40 0 0 1-4 0m32 1h-7 3l5 3 2 2 1-5h-4m40-1l-2 2-1 1v1l1 1c2 0 3-1 3-2l-1-3m-179 1l-1 1v-1h1m24 0v1l-1-1h1m104 2c0 4 1 4 7 4h5l-2-2c-1-2-3-3-6-3h-4v1m-10-1l-3 1-4 2c-2 2-2 2 4 2s6 0 6-3v-2h-3m50 0l1 2v-1l-1-1m6 1v1h1v-1h-1M6 149v1c-1 1 0 1 8 1h7v2H6c-1 2-4 1-4-1l2-2v-1l1-1 1 1m111 0v2h-6c-2 0-2-1-1-2h7m9 0l1 1-4 1c-4 1-5 0-4-2l1-1h3l3 1m46 0s0 1 0 0h0m-24 0l-1 2v-1l1-1m12 0l1 2v-1c-1 0 0-1 0 0l1 1-2-2m-5 2v2l-1-3c1-1 1 0 1 1m158-1h-1v1c1 2 2 2 3 1h1l1-1-3-2-1 1m-288 0c1 2 0 4-2 4-1-1-2-1-2-3 0-1 3-2 4-1m175 5l-1 3c-1 0-2-3-1-4l2 1m-85 0c1 0 1 0 0 0h-4 4m35 2h0m8 0h1-1m-3 1h1v-1l-1 1" fill="#96dae7"/></g></svg>